<?xml version="1.0" standalone="no"?>
<!DOCTYPE svg PUBLIC "-//W3C//DTD SVG 20010904//EN"
 "http://www.w3.org/TR/2001/REC-SVG-20010904/DTD/svg10.dtd">
<svg version="1.0" xmlns="http://www.w3.org/2000/svg"
 width="668.000000pt" height="668.000000pt" viewBox="0 0 668.000000 668.000000"
 preserveAspectRatio="xMidYMid meet">
<metadata>
Created by potrace 1.11, written by Peter Selinger 2001-2013
</metadata>
<g transform="translate(0.000000,668.000000) scale(0.100000,-0.100000)"
fill="#000000" stroke="none">
<path d="M3263 5688 c-33 -45 -120 -175 -194 -288 -124 -187 -167 -256 -298
-473 -51 -84 -180 -309 -240 -417 -51 -92 -289 -568 -315 -630 -10 -25 -27
-63 -37 -85 -123 -272 -276 -745 -304 -940 -3 -22 -10 -62 -15 -90 -20 -109
-27 -316 -16 -425 46 -421 247 -782 578 -1036 105 -81 207 -139 368 -207 103
-44 281 -83 417 -92 49 -4 94 -8 101 -10 6 -3 12 -1 12 3 0 4 33 6 72 5 118
-2 289 31 433 84 249 91 440 224 635 443 49 54 148 205 189 289 60 120 108
261 127 366 2 17 7 37 9 45 18 66 25 308 11 435 -7 71 -24 181 -41 265 -34
171 -151 541 -229 725 -7 17 -24 55 -36 85 -13 30 -43 97 -67 149 -24 51 -43
95 -43 97 0 2 -47 98 -103 212 -103 205 -278 528 -343 630 -19 29 -34 54 -34
56 0 4 -82 138 -169 278 -97 155 -371 565 -402 601 -4 5 -33 -29 -66 -75z"/>
</g>
</svg>
